<?xml version="1.0" encoding="UTF-8" standalone="no"?> <!-- Created with Vectornator for iOS (http://vectornator.io/) --><!DOCTYPE svg PUBLIC "-//W3C//DTD SVG 1.1//EN" "http://www.w3.org/Graphics/SVG/1.1/DTD/svg11.dtd">
<svg style="fill-rule:evenodd;clip-rule:evenodd;stroke-linecap:round;stroke-linejoin:round;" xmlns:vectornator="http://vectornator.io" xmlns:xlink="http://www.w3.org/1999/xlink" xmlns="http://www.w3.org/2000/svg" xml:space="preserve" version="1.1" viewBox="0 0 1024 1024">
<metadata>
<vectornator:setting key="DisplayWhiteBackground" value="0"/>
<vectornator:setting key="RulersVisible" value="1"/>
<vectornator:setting key="SnapToEdges" value="0"/>
<vectornator:setting key="Units" value="Pixels"/>
<vectornator:setting key="DynamicGuides" value="1"/>
<vectornator:setting key="SnapToPoints" value="0"/>
<vectornator:setting key="CMYKEnabledKey" value="0"/>
<vectornator:setting key="SnapToGrid" value="0"/>
<vectornator:setting key="SnapToGuides" value="1"/>
<vectornator:setting key="GridSpacing" value="28.35000038146973"/>
</metadata>
<defs/>
<g id="Layer 1" vectornator:layerName="Layer 1">
<g opacity="1">
<path d="M320.505+57.2073C313.952+58.3059+310.323+61.9556+309.271+67.0368C308.219+72.118+309.745+78.6304+314.186+85.6426L365.439+166.385L301.548+144.62C298.992+143.761+297.03+143.883+294.878+143.566C293.055+143.16+290.728+142.191+289.261+142.162C286.16+142.101+283.695+143.113+281.889+144.62C279.927+146.256+278.767+148.516+279.08+151.641C279.501+155.836+282.616+160.599+288.208+166.385L447.586+332.433L447.586+332.784L372.46+567.639C367.855+581.827+377.05+589.417+390.013+582.032L471.809+535.342C481.266+529.955+487.24+516.935+485.851+505.853L486.904+486.194L643.474+433.536C647.707+432.147+652.689+427.964+655.058+424.058L683.494+377.017C683.605+376.906+683.776+376.8+683.845+376.666L684.898+375.262L695.78+350.337L758.268+370.347C768.732+373.743+774.334+366.051+768.8+356.656L724.216+281.53L723.163+282.232C722.469+280.87+722.375+279.205+720.705+279.073C720.583+279.063+720.83+278.722+720.705+278.722L628.027+278.722L527.626+113.376C524.24+107.794+516.729+102.263+510.424+100.738L333.845+57.9094C329.012+56.7371+324.37+56.5598+320.505+57.2073ZM321.909+65.9836C321.985+65.9708+322.18+65.9946+322.26+65.9836C324.439+65.6841+327.665+66.0485+331.738+67.0368L508.318+109.514C512.293+110.476+517.756+114.397+519.903+117.94L621.708+285.743L674.015+372.453L486.202+476.014L464.085+307.157L464.085+306.455L463.383+304.7L379.833+172.704C379.782+172.583+379.801+172.468+379.833+172.353L379.833+172.002L321.909+81.0789C321.826+80.9476+321.989+80.8576+321.909+80.7279C321.124+79.4886+321.415+78.9883+320.856+77.9194C319.435+75.0452+317.927+71.969+318.047+70.1963C318.233+67.9046+319.363+66.4106+321.909+65.9836ZM288.559+150.939C288.692+151.07+288.406+151.272+289.261+151.29C291.334+151.33+294.341+151.917+298.739+153.396L373.163+178.672L454.958+307.508L450.043+322.252L295.229+160.417C291.045+156.087+288.942+152.698+288.559+150.939ZM633.644+287.849L713.684+287.849L679.632+364.028L633.644+287.849ZM721.056+293.817L761.076+361.219C762.522+363.674+763.446+362.34+761.076+361.57L699.642+341.56L721.056+293.817ZM457.415+328.571L477.776+483.737C477.792+483.86+478.102+483.619+478.127+483.737L477.074+506.204C478.052+514.519+473.476+523.719+467.245+527.268L385.449+573.958C379.703+577.231+379.13+576.585+381.237+570.096L457.064+332.433C457.231+331.91+456.743+331.521+456.713+331.029L457.415+328.571ZM667.696+386.144L647.335+419.494C646.059+421.597+642.859+424.04+640.665+424.76L529.732+461.972L667.696+386.144Z" opacity="1" fill="#ffffff"/>
<g opacity="1">
<g opacity="1">
<path d="M185.544+710.069L185.544+748.119C185.544+752.792+186.445+756.296+188.247+758.633C190.05+760.969+193.287+762.137+197.96+762.137C199.562+762.137+201.264+762.004+203.067+761.737C204.869+761.47+206.371+761.069+207.573+760.535L207.973+784.567C205.704+785.368+202.833+786.069+199.362+786.669C195.891+787.27+192.419+787.571+188.948+787.571C182.273+787.571+176.665+786.736+172.126+785.067C167.587+783.398+163.949+780.995+161.212+777.858C158.475+774.72+156.505+770.982+155.304+766.643C154.102+762.304+153.502+757.464+153.502+752.124L153.502+710.069L137.48+710.069L137.48+685.436L153.301+685.436L153.301+659.202L185.544+659.202L185.544+685.436L208.974+685.436L208.974+710.069L185.544+710.069Z" opacity="1" fill="#ffffff"/>
<path d="M288.534+723.887C288.534+718.68+286.898+714.207+283.627+710.469C280.356+706.731+275.45+704.862+268.908+704.862C265.704+704.862+262.766+705.362+260.096+706.364C257.426+707.365+255.09+708.734+253.087+710.469C251.084+712.205+249.482+714.241+248.281+716.577C247.079+718.914+246.412+721.35+246.278+723.887L288.534+723.887ZM318.773+736.503C318.773+737.839+318.773+739.174+318.773+740.509C318.773+741.844+318.707+743.112+318.573+744.314L246.278+744.314C246.545+747.117+247.38+749.654+248.781+751.924C250.183+754.193+251.986+756.163+254.188+757.831C256.391+759.5+258.861+760.802+261.598+761.737C264.335+762.671+267.172+763.138+270.109+763.138C275.316+763.138+279.722+762.171+283.327+760.235C286.932+758.299+289.869+755.795+292.138+752.725L314.968+767.144C310.296+773.953+304.121+779.193+296.444+782.864C288.767+786.536+279.856+788.372+269.709+788.372C262.232+788.372+255.156+787.203+248.481+784.867C241.806+782.531+235.965+779.126+230.958+774.654C225.951+770.181+222.013+764.674+219.142+758.132C216.272+751.59+214.837+744.113+214.837+735.702C214.837+727.558+216.239+720.182+219.042+713.573C221.846+706.965+225.651+701.357+230.457+696.751C235.264+692.145+240.938+688.574+247.48+686.037C254.022+683.5+261.098+682.232+268.708+682.232C276.051+682.232+282.793+683.467+288.934+685.937C295.076+688.407+300.349+691.978+304.755+696.651C309.161+701.324+312.599+706.998+315.069+713.673C317.538+720.349+318.773+727.959+318.773+736.503Z" opacity="1" fill="#ffffff"/>
<path d="M335.049+785.167L335.049+633.768L368.293+633.768L368.293+785.167L335.049+785.167Z" opacity="1" fill="#ffffff"/>
<path d="M458.466+723.887C458.466+718.68+456.831+714.207+453.56+710.469C450.289+706.731+445.382+704.862+438.84+704.862C435.636+704.862+432.699+705.362+430.029+706.364C427.359+707.365+425.022+708.734+423.02+710.469C421.017+712.205+419.415+714.241+418.213+716.577C417.012+718.914+416.344+721.35+416.211+723.887L458.466+723.887ZM488.706+736.503C488.706+737.839+488.706+739.174+488.706+740.509C488.706+741.844+488.639+743.112+488.506+744.314L416.211+744.314C416.478+747.117+417.312+749.654+418.714+751.924C420.116+754.193+421.918+756.163+424.121+757.831C426.324+759.5+428.794+760.802+431.531+761.737C434.268+762.671+437.105+763.138+440.042+763.138C445.249+763.138+449.655+762.171+453.259+760.235C456.864+758.299+459.801+755.795+462.071+752.725L484.901+767.144C480.228+773.953+474.053+779.193+466.377+782.864C458.7+786.536+449.788+788.372+439.642+788.372C432.165+788.372+425.089+787.203+418.414+784.867C411.738+782.531+405.897+779.126+400.891+774.654C395.884+770.181+391.945+764.674+389.075+758.132C386.205+751.59+384.769+744.113+384.769+735.702C384.769+727.558+386.171+720.182+388.975+713.573C391.779+706.965+395.584+701.357+400.39+696.751C405.196+692.145+410.87+688.574+417.412+686.037C423.954+683.5+431.03+682.232+438.64+682.232C445.983+682.232+452.725+683.467+458.867+685.937C465.008+688.407+470.282+691.978+474.688+696.651C479.093+701.324+482.531+706.998+485.001+713.673C487.471+720.349+488.706+727.959+488.706+736.503Z" opacity="1" fill="#ffffff"/>
<path d="M573.272+717.679C571.403+715.276+568.866+713.34+565.662+711.871C562.458+710.402+559.187+709.668+555.849+709.668C552.378+709.668+549.24+710.369+546.437+711.771C543.633+713.173+541.23+715.042+539.227+717.378C537.224+719.715+535.656+722.418+534.521+725.489C533.386+728.56+532.819+731.831+532.819+735.302C532.819+738.773+533.353+742.044+534.421+745.115C535.489+748.185+537.058+750.889+539.127+753.225C541.196+755.562+543.666+757.398+546.537+758.733C549.407+760.068+552.645+760.735+556.249+760.735C559.587+760.735+562.892+760.101+566.162+758.833C569.433+757.564+572.07+755.729+574.073+753.326L592.297+775.555C588.158+779.56+582.818+782.698+576.276+784.967C569.734+787.237+562.791+788.372+555.448+788.372C547.571+788.372+540.228+787.17+533.419+784.767C526.61+782.364+520.703+778.859+515.696+774.253C510.69+769.647+506.751+764.073+503.881+757.531C501.01+750.989+499.575+743.579+499.575+735.302C499.575+727.158+501.01+719.815+503.881+713.273C506.751+706.731+510.69+701.157+515.696+696.551C520.703+691.945+526.61+688.407+533.419+685.937C540.228+683.467+547.505+682.232+555.248+682.232C558.853+682.232+562.424+682.566+565.962+683.233C569.5+683.901+572.905+684.802+576.176+685.937C579.447+687.072+582.451+688.474+585.187+690.142C587.924+691.811+590.294+693.647+592.297+695.65L573.272+717.679Z" opacity="1" fill="#ffffff"/>
<path d="M706.502+734.901C706.502+743.045+705.033+750.422+702.096+757.03C699.159+763.639+695.153+769.246+690.08+773.853C685.007+778.459+679.132+782.03+672.457+784.567C665.781+787.103+658.639+788.372+651.029+788.372C643.552+788.372+636.443+787.103+629.701+784.567C622.958+782.03+617.084+778.459+612.077+773.853C607.071+769.246+603.099+763.639+600.162+757.03C597.225+750.422+595.756+743.045+595.756+734.901C595.756+726.757+597.225+719.414+600.162+712.872C603.099+706.33+607.071+700.79+612.077+696.25C617.084+691.711+622.958+688.24+629.701+685.837C636.443+683.434+643.552+682.232+651.029+682.232C658.639+682.232+665.781+683.434+672.457+685.837C679.132+688.24+685.007+691.711+690.08+696.25C695.153+700.79+699.159+706.33+702.096+712.872C705.033+719.414+706.502+726.757+706.502+734.901ZM674.86+734.901C674.86+731.697+674.326+728.56+673.258+725.489C672.19+722.418+670.654+719.715+668.652+717.378C666.649+715.042+664.179+713.139+661.242+711.671C658.305+710.202+654.9+709.468+651.029+709.468C647.157+709.468+643.752+710.202+640.815+711.671C637.878+713.139+635.441+715.042+633.506+717.378C631.57+719.715+630.101+722.418+629.1+725.489C628.098+728.56+627.598+731.697+627.598+734.901C627.598+738.106+628.098+741.243+629.1+744.314C630.101+747.384+631.603+750.155+633.606+752.625C635.608+755.095+638.078+757.064+641.015+758.532C643.953+760.001+647.357+760.735+651.229+760.735C655.101+760.735+658.505+760.001+661.442+758.532C664.38+757.064+666.849+755.095+668.852+752.625C670.855+750.155+672.357+747.384+673.358+744.314C674.359+741.243+674.86+738.106+674.86+734.901Z" opacity="1" fill="#ffffff"/>
<path d="M850.145+785.167L850.145+730.696C850.145+727.892+849.945+725.189+849.544+722.585C849.144+719.982+848.409+717.745+847.341+715.876C846.273+714.007+844.838+712.505+843.036+711.37C841.233+710.236+838.864+709.668+835.926+709.668C833.123+709.668+830.686+710.269+828.617+711.471C826.547+712.672+824.812+714.274+823.41+716.277C822.008+718.279+820.973+720.582+820.306+723.186C819.638+725.789+819.305+728.493+819.305+731.297L819.305+785.167L786.461+785.167L786.461+728.293C786.461+722.552+785.326+718.012+783.057+714.675C780.787+711.337+777.182+709.668+772.243+709.668C767.036+709.668+762.997+711.738+760.127+715.876C757.256+720.015+755.821+725.088+755.821+731.096L755.821+785.167L722.778+785.167L722.778+685.436L754.619+685.436L754.619+699.254L755.02+699.254C756.222+697.118+757.724+695.049+759.526+693.046C761.328+691.044+763.498+689.275+766.034+687.739C768.571+686.204+771.408+684.969+774.546+684.034C777.683+683.1+781.121+682.633+784.859+682.633C792.069+682.633+798.177+684.101+803.183+687.038C808.19+689.976+812.095+694.181+814.899+699.655C818.236+694.448+822.509+690.309+827.716+687.239C832.922+684.168+839.264+682.633+846.741+682.633C853.55+682.633+859.257+683.868+863.863+686.337C868.469+688.807+872.174+692.012+874.978+695.95C877.781+699.889+879.817+704.294+881.086+709.167C882.354+714.041+882.988+718.813+882.988+723.486L882.988+785.167L850.145+785.167Z" opacity="1" fill="#ffffff"/>
</g>
<g opacity="1">
<path d="M235.128+892.694C234.727+883.882+231.89+876.573+226.616+870.765C221.343+864.957+213.833+862.054+204.087+862.054C199.548+862.054+195.342+862.888+191.47+864.557C187.598+866.226+184.194+868.495+181.257+871.366C178.32+874.236+175.983+877.507+174.248+881.179C172.512+884.85+171.511+888.689+171.244+892.694L235.128+892.694ZM248.946+897.1C248.946+898.034+248.946+899.036+248.946+900.104C248.946+901.172+248.879+902.306+248.746+903.508L171.043+903.508C171.177+908.181+172.111+912.587+173.847+916.725C175.583+920.864+177.986+924.469+181.057+927.54C184.127+930.61+187.732+933.047+191.871+934.849C196.01+936.652+200.482+937.553+205.288+937.553C212.364+937.553+218.472+935.917+223.613+932.646C228.753+929.375+232.658+925.604+235.328+921.331L245.541+929.342C239.934+936.418+233.759+941.491+227.017+944.562C220.275+947.633+213.032+949.168+205.288+949.168C198.346+949.168+191.904+947.933+185.963+945.463C180.022+942.993+174.915+939.555+170.643+935.15C166.371+930.744+162.999+925.537+160.53+919.529C158.06+913.521+156.825+906.979+156.825+899.903C156.825+892.827+158.026+886.285+160.429+880.277C162.833+874.27+166.17+869.063+170.443+864.657C174.715+860.251+179.721+856.813+185.462+854.343C191.203+851.873+197.411+850.639+204.087+850.639C211.43+850.639+217.905+851.873+223.512+854.343C229.12+856.813+233.793+860.151+237.531+864.357C241.269+868.562+244.106+873.469+246.042+879.076C247.978+884.683+248.946+890.691+248.946+897.1Z" opacity="1" fill="#ffffff"/>
<path d="M370.506+864.457L344.071+864.457L344.071+919.129C344.071+922.6+344.405+925.47+345.072+927.74C345.74+930.01+346.708+931.779+347.976+933.047C349.244+934.315+350.746+935.183+352.482+935.65C354.218+936.118+356.087+936.351+358.089+936.351C359.959+936.351+361.928+936.084+363.997+935.55C366.067+935.016+368.036+934.282+369.905+933.347L370.506+945.163C368.103+946.097+365.599+946.798+362.996+947.266C360.392+947.733+357.555+947.967+354.485+947.967C351.948+947.967+349.278+947.633+346.474+946.965C343.67+946.298+341.067+945.029+338.664+943.16C336.261+941.291+334.291+938.754+332.756+935.55C331.221+932.346+330.453+928.14+330.453+922.934L330.453+864.457L311.028+864.457L311.028+853.042L330.453+853.042L330.453+826.607L344.071+826.607L344.071+853.042L370.506+853.042L370.506+864.457Z" opacity="1" fill="#ffffff"/>
<path d="M509.889+946.765C509.622+944.228+509.422+941.425+509.288+938.354C509.155+935.283+509.088+932.747+509.088+930.744L508.687+930.744C506.017+936.218+501.678+940.657+495.67+944.061C489.662+947.466+483.321+949.168+476.645+949.168C464.763+949.168+455.851+945.63+449.91+938.554C443.969+931.478+440.998+922.133+440.998+910.517L440.998+853.042L454.616+853.042L454.616+904.91C454.616+909.85+455.017+914.322+455.818+918.328C456.619+922.333+457.987+925.771+459.923+928.641C461.859+931.512+464.463+933.748+467.734+935.35C471.005+936.952+475.11+937.753+480.05+937.753C483.655+937.753+487.159+937.019+490.564+935.55C493.968+934.082+497.005+931.845+499.676+928.841C502.346+925.837+504.482+922.032+506.084+917.426C507.686+912.82+508.487+907.38+508.487+901.105L508.487+853.042L522.105+853.042L522.105+926.138C522.105+928.674+522.172+931.945+522.305+935.951C522.439+939.956+522.639+943.561+522.906+946.765L509.889+946.765Z" opacity="1" fill="#ffffff"/>
<path d="M685.32+930.944C681.315+936.952+676.108+941.491+669.699+944.562C663.291+947.633+656.682+949.168+649.873+949.168C642.53+949.168+635.888+947.9+629.947+945.363C624.006+942.826+618.932+939.355+614.727+934.949C610.521+930.544+607.25+925.337+604.914+919.329C602.578+913.321+601.409+906.846+601.409+899.903C601.409+892.961+602.578+886.486+604.914+880.478C607.25+874.47+610.521+869.263+614.727+864.857C618.932+860.451+624.006+856.98+629.947+854.444C635.888+851.907+642.53+850.639+649.873+850.639C656.682+850.639+663.291+852.207+669.699+855.345C676.108+858.482+681.315+863.122+685.32+869.263L685.72+869.263L685.72+795.366L699.338+795.366L699.338+946.765L685.72+946.765L685.72+930.944L685.32+930.944ZM615.828+899.903C615.828+905.11+616.629+910.017+618.232+914.623C619.834+919.229+622.137+923.234+625.141+926.638C628.145+930.043+631.849+932.713+636.255+934.649C640.661+936.585+645.668+937.553+651.275+937.553C656.482+937.553+661.288+936.585+665.694+934.649C670.1+932.713+673.905+930.076+677.109+926.739C680.313+923.401+682.817+919.429+684.619+914.823C686.421+910.217+687.322+905.244+687.322+899.903C687.322+894.563+686.421+889.59+684.619+884.984C682.817+880.378+680.313+876.372+677.109+872.968C673.905+869.563+670.1+866.893+665.694+864.957C661.288+863.021+656.482+862.054+651.275+862.054C645.668+862.054+640.661+863.055+636.255+865.057C631.849+867.06+628.145+869.764+625.141+873.168C622.137+876.573+619.834+880.578+618.232+885.184C616.629+889.79+615.828+894.696+615.828+899.903Z" opacity="1" fill="#ffffff"/>
<path d="M857.346+892.694C856.946+883.882+854.108+876.573+848.835+870.765C843.561+864.957+836.051+862.054+826.305+862.054C821.766+862.054+817.56+862.888+813.689+864.557C809.817+866.226+806.412+868.495+803.475+871.366C800.538+874.236+798.202+877.507+796.466+881.179C794.73+884.85+793.729+888.689+793.462+892.694L857.346+892.694ZM871.164+897.1C871.164+898.034+871.164+899.036+871.164+900.104C871.164+901.172+871.097+902.306+870.964+903.508L793.262+903.508C793.395+908.181+794.33+912.587+796.065+916.725C797.801+920.864+800.204+924.469+803.275+927.54C806.346+930.61+809.95+933.047+814.089+934.849C818.228+936.652+822.701+937.553+827.507+937.553C834.583+937.553+840.691+935.917+845.831+932.646C850.971+929.375+854.876+925.604+857.546+921.331L867.76+929.342C862.152+936.418+855.978+941.491+849.235+944.562C842.493+947.633+835.25+949.168+827.507+949.168C820.564+949.168+814.123+947.933+808.181+945.463C802.24+942.993+797.134+939.555+792.861+935.15C788.589+930.744+785.218+925.537+782.748+919.529C780.278+913.521+779.043+906.979+779.043+899.903C779.043+892.827+780.245+886.285+782.648+880.277C785.051+874.27+788.389+869.063+792.661+864.657C796.933+860.251+801.94+856.813+807.681+854.343C813.422+851.873+819.63+850.639+826.305+850.639C833.648+850.639+840.123+851.873+845.731+854.343C851.338+856.813+856.011+860.151+859.749+864.357C863.487+868.562+866.325+873.469+868.26+879.076C870.196+884.683+871.164+890.691+871.164+897.1Z" opacity="1" fill="#ffffff"/>
</g>
</g>
</g>
</g>
</svg>
