<?xml version="1.0" encoding="UTF-8" standalone="no"?> <!-- Created with Vectornator for iOS (http://vectornator.io/) --><!DOCTYPE svg PUBLIC "-//W3C//DTD SVG 1.1//EN" "http://www.w3.org/Graphics/SVG/1.1/DTD/svg11.dtd">
<svg style="fill-rule:evenodd;clip-rule:evenodd;stroke-linecap:round;stroke-linejoin:round;" xmlns:vectornator="http://vectornator.io" xmlns:xlink="http://www.w3.org/1999/xlink" xmlns="http://www.w3.org/2000/svg" xml:space="preserve" version="1.1" viewBox="0 0 1024 1024">
<metadata>
<vectornator:setting key="DisplayWhiteBackground" value="0"/>
<vectornator:setting key="RulersVisible" value="1"/>
<vectornator:setting key="SnapToEdges" value="0"/>
<vectornator:setting key="Units" value="Pixels"/>
<vectornator:setting key="DynamicGuides" value="1"/>
<vectornator:setting key="SnapToPoints" value="0"/>
<vectornator:setting key="CMYKEnabledKey" value="0"/>
<vectornator:setting key="SnapToGrid" value="0"/>
<vectornator:setting key="SnapToGuides" value="1"/>
<vectornator:setting key="GridSpacing" value="28.35000038146973"/>
</metadata>
<defs/>
<g id="Layer 1" vectornator:layerName="Layer 1">
<path d="M307.505+248.337C300.952+249.436+297.323+253.086+296.271+258.167C295.219+263.248+296.745+269.76+301.186+276.773L352.439+357.515L288.548+335.75C285.992+334.891+284.03+335.013+281.878+334.696C280.055+334.29+277.728+333.321+276.261+333.292C273.16+333.231+270.695+334.243+268.889+335.75C266.927+337.386+265.767+339.646+266.08+342.771C266.501+346.966+269.616+351.729+275.208+357.515L434.586+523.563L434.586+523.914L359.46+758.769C354.855+772.957+364.05+780.547+377.013+773.162L458.809+726.472C468.266+721.085+474.24+708.065+472.851+696.983L473.904+677.324L630.474+624.666C634.707+623.277+639.689+619.094+642.058+615.188L670.494+568.147C670.605+568.036+670.776+567.93+670.845+567.796L671.898+566.392L682.78+541.467L745.268+561.477C755.732+564.873+761.334+557.181+755.8+547.786L711.216+472.66L710.163+473.363C709.469+472+709.375+470.335+707.705+470.203C707.583+470.193+707.83+469.852+707.705+469.852L615.027+469.852L514.626+304.506C511.24+298.924+503.729+293.393+497.424+291.868L320.845+249.04C316.012+247.867+311.37+247.69+307.505+248.337ZM308.909+257.114C308.985+257.101+309.18+257.125+309.26+257.114C311.439+256.814+314.665+257.179+318.738+258.167L495.318+300.644C499.293+301.607+504.756+305.527+506.903+309.07L608.708+476.873L661.015+563.583L473.202+667.144L451.085+498.287L451.085+497.585L450.383+495.83L366.833+363.834C366.782+363.713+366.801+363.598+366.833+363.483L366.833+363.132L308.909+272.209C308.826+272.078+308.989+271.988+308.909+271.858C308.124+270.619+308.415+270.118+307.856+269.05C306.435+266.175+304.927+263.099+305.047+261.326C305.233+259.035+306.363+257.541+308.909+257.114ZM275.559+342.069C275.692+342.201+275.406+342.402+276.261+342.42C278.334+342.46+281.341+343.047+285.739+344.526L360.163+369.802L441.958+498.638L437.043+513.383L282.229+351.547C278.045+347.218+275.942+343.828+275.559+342.069ZM620.644+478.979L700.684+478.979L666.632+555.158L620.644+478.979ZM708.056+484.947L748.076+552.349C749.522+554.804+750.446+553.47+748.076+552.701L686.642+532.691L708.056+484.947ZM444.415+519.702L464.776+674.867C464.792+674.99+465.102+674.749+465.127+674.867L464.074+697.334C465.052+705.649+460.476+714.849+454.245+718.398L372.449+765.088C366.703+768.361+366.13+767.715+368.237+761.226L444.064+523.563C444.231+523.04+443.743+522.651+443.713+522.159L444.415+519.702ZM654.696+577.274L634.335+610.624C633.059+612.727+629.859+615.17+627.665+615.89L516.732+653.102L654.696+577.274Z" opacity="1" fill="#ffffff"/>
</g>
</svg>
