<?xml version="1.0" encoding="UTF-8" standalone="no"?>
<svg xmlns:dc="http://purl.org/dc/elements/1.1/" xmlns:cc="http://creativecommons.org/ns#"
    xmlns:rdf="http://www.w3.org/1999/02/22-rdf-syntax-ns#" xmlns:svg="http://www.w3.org/2000/svg"
    xmlns="http://www.w3.org/2000/svg" width="210mm" height="297mm" viewBox="0 0 210 297" id="svg8">
    <g id="layer1">
        <g id="g63" transform="translate(-146.76259,-24.209521)">
            <path style="fill:#d41e47;stroke-width:1.46659458"
                d="m 188.45037,262.06841 c 0,-0.30982 7.25964,-21.50035 16.13254,-47.09008 8.87289,-25.58974 16.13254,-47.25786 16.13254,-48.15139 0,-0.89352 -16.00422,-17.69803 -35.56492,-37.34334 -19.5607,-19.64531 -34.24498,-35.337304 -32.63173,-34.8711 1.61326,0.466206 10.42358,3.214585 19.5785,6.10751 9.15492,2.89293 16.82497,5.05064 17.04456,4.79491 0.21958,-0.25573 -5.74946,-9.68593 -13.26454,-20.956005 -7.51508,-11.270076 -13.47204,-20.682785 -13.23769,-20.917133 0.38038,-0.380378 14.68444,2.550543 65.34897,13.390092 l 15.33941,3.28183 21.42873,34.367046 21.42873,34.36705 17.49585,-0.49594 17.49585,-0.49595 7.84948,14.88982 c 4.31722,8.18939 7.56682,15.17248 7.22132,15.51797 -0.34548,0.34549 -6.09738,-0.9619 -12.782,-2.9053 l -12.15383,-3.53347 -2.24361,5.71168 c -1.23398,3.14142 -3.44735,6.09373 -4.91858,6.56068 -1.47123,0.46695 -4.51165,4.18781 -6.75651,8.26858 l -4.08156,7.41959 -31.53179,11.36467 -31.53178,11.36469 0.46188,6.53908 c 0.29165,4.1289 -0.24891,7.11659 -1.46659,8.106 -3.03721,2.46782 -40.79323,25.33668 -40.79323,24.70851 z"
                id="path69"></path>
            <path style="fill:#ad1439;stroke-width:1.46659458"
                d="m 190.58068,257.37976 c 0.60966,-1.50543 7.40482,-21.06582 15.10035,-43.46756 7.69553,-22.40172 14.26426,-40.45802 14.59718,-40.12509 0.33292,0.33292 2.89645,13.99919 5.69673,30.36949 4.11141,24.03507 4.7304,30.09164 3.2158,31.46541 -1.99167,1.80648 -30.25266,19.47215 -36.19632,22.62596 -3.20309,1.69962 -3.42179,1.62096 -2.41374,-0.86821 z m 45.11519,-37.9269 c 1.2613,-1.35588 63.14978,-33.12305 63.55637,-32.62329 0.15648,0.19233 -0.87579,3.04093 -2.29391,6.33023 l -2.57842,5.98054 -28.29101,10.152 c -15.56006,5.5836 -28.99972,10.40735 -29.86591,10.71943 -0.86619,0.31209 -1.1034,0.0606 -0.52712,-0.55891 z m 64.87949,-47.1162 c -2.97506,-4.7426 -7.27827,-11.57084 -9.56268,-15.17387 -2.28442,-3.60302 -4.02156,-6.64706 -3.86034,-6.76451 0.16124,-0.11746 7.38781,-0.59736 16.05905,-1.06645 12.646,-0.68411 15.76589,-0.46284 15.76589,1.11818 0,2.28712 -10.14154,27.30328 -11.84564,29.21962 -0.63088,0.70947 -3.5812,-2.59036 -6.55628,-7.33297 z M 186.25048,129.85035 c -19.35905,-18.8442 -34.45263,-34.278169 -33.54128,-34.297716 0.91135,-0.01955 9.65592,2.526124 19.43238,5.657046 9.77646,3.13092 17.77538,5.14491 17.77538,4.47552 0,-0.66939 -5.65467,-9.895772 -12.56594,-20.503079 -6.91126,-10.607308 -12.35599,-19.455968 -12.0994,-19.66369 0.25659,-0.207722 17.62569,3.339634 38.59799,7.883013 36.65091,7.939947 38.11747,8.389688 37.77123,11.583046 -0.34163,3.150779 -19.32629,78.4223 -19.90009,78.90107 -0.1496,0.12483 -16.11123,-15.19102 -35.47027,-34.03521 z"
                id="path67"></path>
            <path style="fill:#7b0021;stroke-width:1.46659458"
                d="m 249.79605,212.92521 c 6.47348,-4.12524 48.64891,-25.22494 48.64891,-24.33829 0,0.38099 -1.03816,2.86 -2.30701,5.50891 -2.13669,4.46061 -3.99111,5.41172 -25.11722,12.88246 -28.33336,10.01939 -27.05195,9.66035 -21.22468,5.94692 z m -62.8245,-83.02573 C 150.67779,93.501389 151.28539,95.122535 177.04012,103.40103 l 14.25516,4.58212 16.04219,24.55469 c 11.24525,17.21232 15.81199,25.43499 15.27233,27.49864 -0.42342,1.61919 -1.19336,2.94397 -1.71098,2.94397 -0.51761,0 -15.78489,-14.88644 -33.92727,-33.08097 z"
                id="path65"></path>
        </g>
    </g>
</svg>