<?xml version="1.0" encoding="UTF-8" standalone="no"?> <!-- Created with Vectornator for iOS (http://vectornator.io/) --><!DOCTYPE svg PUBLIC "-//W3C//DTD SVG 1.1//EN" "http://www.w3.org/Graphics/SVG/1.1/DTD/svg11.dtd">
<svg style="fill-rule:evenodd;clip-rule:evenodd;stroke-linecap:round;stroke-linejoin:round;" xmlns:vectornator="http://vectornator.io" xmlns:xlink="http://www.w3.org/1999/xlink" xmlns="http://www.w3.org/2000/svg" xml:space="preserve" version="1.1" viewBox="0 0 1024 1024">
<metadata>
<vectornator:setting key="DisplayWhiteBackground" value="0"/>
<vectornator:setting key="RulersVisible" value="1"/>
<vectornator:setting key="SnapToEdges" value="0"/>
<vectornator:setting key="Units" value="Pixels"/>
<vectornator:setting key="DynamicGuides" value="1"/>
<vectornator:setting key="SnapToPoints" value="0"/>
<vectornator:setting key="CMYKEnabledKey" value="0"/>
<vectornator:setting key="SnapToGrid" value="0"/>
<vectornator:setting key="SnapToGuides" value="1"/>
<vectornator:setting key="GridSpacing" value="28.35000038146973"/>
</metadata>
<defs/>
<g id="Layer 1" vectornator:layerName="Layer 1">
<g opacity="1">
<path d="M324.505+53.0431C317.952+54.1417+314.323+57.7914+313.271+62.8726C312.219+67.9537+313.745+74.4662+318.186+81.4784L369.439+162.221L305.548+140.455C302.992+139.596+301.03+139.719+298.878+139.402C297.055+138.996+294.728+138.027+293.261+137.998C290.16+137.937+287.695+138.948+285.889+140.455C283.927+142.092+282.767+144.352+283.08+147.476C283.501+151.672+286.616+156.434+292.208+162.221L451.586+328.269L451.586+328.62L376.46+563.474C371.855+577.663+381.05+585.252+394.013+577.868L475.809+531.178C485.266+525.79+491.24+512.771+489.851+501.689L490.904+482.03L647.474+429.372C651.707+427.983+656.689+423.8+659.058+419.894L687.494+372.853C687.605+372.741+687.776+372.635+687.845+372.502L688.898+371.097L699.78+346.173L762.268+366.183C772.732+369.579+778.334+361.887+772.8+352.491L728.216+277.366L727.163+278.068C726.469+276.706+726.375+275.041+724.705+274.909C724.583+274.899+724.83+274.558+724.705+274.558L632.027+274.558L531.626+109.212C528.24+103.629+520.729+98.0991+514.424+96.5737L337.845+53.7452C333.012+52.5728+328.37+52.3956+324.505+53.0431ZM325.909+61.8194C325.985+61.8066+326.18+61.8304+326.26+61.8194C328.439+61.5199+331.665+61.8842+335.738+62.8726L512.318+105.35C516.293+106.312+521.756+110.233+523.903+113.775L625.708+281.579L678.015+368.289L490.202+471.85L468.085+302.993L468.085+302.291L467.383+300.536L383.833+168.54C383.782+168.418+383.801+168.304+383.833+168.189L383.833+167.837L325.909+76.9147C325.826+76.7833+325.989+76.6934+325.909+76.5636C325.124+75.3243+325.415+74.8241+324.856+73.7552C323.435+70.881+321.927+67.8047+322.047+66.032C322.233+63.7404+323.363+62.2464+325.909+61.8194ZM292.559+146.774C292.692+146.906+292.406+147.108+293.261+147.125C295.334+147.166+298.341+147.753+302.739+149.232L377.163+174.507L458.958+303.344L454.043+318.088L299.229+156.253C295.045+151.923+292.942+148.533+292.559+146.774ZM637.644+283.685L717.684+283.685L683.632+359.864L637.644+283.685ZM725.056+289.653L765.076+357.055C766.522+359.51+767.446+358.175+765.076+357.406L703.642+337.396L725.056+289.653ZM461.415+324.407L481.776+479.573C481.792+479.696+482.102+479.455+482.127+479.573L481.074+502.04C482.052+510.354+477.476+519.555+471.245+523.103L389.449+569.793C383.703+573.067+383.13+572.42+385.237+565.932L461.064+328.269C461.231+327.746+460.743+327.357+460.713+326.865L461.415+324.407ZM671.696+381.98L651.335+415.33C650.059+417.433+646.859+419.876+644.665+420.596L533.732+457.807L671.696+381.98Z" opacity="1" fill="#000000"/>
<g opacity="1">
<g opacity="1">
<path d="M189.544+705.904L189.544+743.954C189.544+748.627+190.445+752.132+192.247+754.468C194.05+756.805+197.287+757.973+201.96+757.973C203.562+757.973+205.264+757.839+207.067+757.572C208.869+757.305+210.371+756.905+211.573+756.371L211.973+780.402C209.704+781.203+206.833+781.904+203.362+782.505C199.891+783.106+196.419+783.406+192.948+783.406C186.273+783.406+180.665+782.572+176.126+780.903C171.587+779.234+167.949+776.831+165.212+773.694C162.475+770.556+160.505+766.818+159.304+762.479C158.102+758.14+157.502+753.3+157.502+747.96L157.502+705.904L141.48+705.904L141.48+681.272L157.301+681.272L157.301+655.038L189.544+655.038L189.544+681.272L212.974+681.272L212.974+705.904L189.544+705.904Z" opacity="1" fill="#000000"/>
<path d="M292.534+719.723C292.534+714.516+290.898+710.043+287.627+706.305C284.356+702.567+279.45+700.698+272.908+700.698C269.704+700.698+266.766+701.198+264.096+702.2C261.426+703.201+259.09+704.569+257.087+706.305C255.084+708.041+253.482+710.077+252.281+712.413C251.079+714.749+250.412+717.186+250.278+719.723L292.534+719.723ZM322.773+732.339C322.773+733.674+322.773+735.009+322.773+736.344C322.773+737.68+322.707+738.948+322.573+740.149L250.278+740.149C250.545+742.953+251.38+745.49+252.781+747.759C254.183+750.029+255.986+751.998+258.188+753.667C260.391+755.336+262.861+756.638+265.598+757.572C268.335+758.507+271.172+758.974+274.109+758.974C279.316+758.974+283.722+758.006+287.327+756.07C290.932+754.135+293.869+751.631+296.138+748.561L318.968+762.979C314.296+769.788+308.121+775.029+300.444+778.7C292.767+782.372+283.856+784.207+273.709+784.207C266.232+784.207+259.156+783.039+252.481+780.703C245.806+778.366+239.965+774.962+234.958+770.489C229.951+766.017+226.013+760.51+223.142+753.968C220.272+747.426+218.837+739.949+218.837+731.538C218.837+723.394+220.239+716.018+223.042+709.409C225.846+702.8+229.651+697.193+234.457+692.587C239.264+687.981+244.938+684.409+251.48+681.873C258.022+679.336+265.098+678.068+272.708+678.068C280.051+678.068+286.793+679.303+292.934+681.773C299.076+684.243+304.349+687.814+308.755+692.487C313.161+697.16+316.599+702.834+319.069+709.509C321.538+716.185+322.773+723.795+322.773+732.339Z" opacity="1" fill="#000000"/>
<path d="M339.049+781.003L339.049+629.604L372.293+629.604L372.293+781.003L339.049+781.003Z" opacity="1" fill="#000000"/>
<path d="M462.466+719.723C462.466+714.516+460.831+710.043+457.56+706.305C454.289+702.567+449.382+700.698+442.84+700.698C439.636+700.698+436.699+701.198+434.029+702.2C431.359+703.201+429.022+704.569+427.02+706.305C425.017+708.041+423.415+710.077+422.213+712.413C421.012+714.749+420.344+717.186+420.211+719.723L462.466+719.723ZM492.706+732.339C492.706+733.674+492.706+735.009+492.706+736.344C492.706+737.68+492.639+738.948+492.506+740.149L420.211+740.149C420.478+742.953+421.312+745.49+422.714+747.759C424.116+750.029+425.918+751.998+428.121+753.667C430.324+755.336+432.794+756.638+435.531+757.572C438.268+758.507+441.105+758.974+444.042+758.974C449.249+758.974+453.655+758.006+457.259+756.07C460.864+754.135+463.801+751.631+466.071+748.561L488.901+762.979C484.228+769.788+478.053+775.029+470.377+778.7C462.7+782.372+453.788+784.207+443.642+784.207C436.165+784.207+429.089+783.039+422.414+780.703C415.738+778.366+409.897+774.962+404.891+770.489C399.884+766.017+395.945+760.51+393.075+753.968C390.205+747.426+388.769+739.949+388.769+731.538C388.769+723.394+390.171+716.018+392.975+709.409C395.779+702.8+399.584+697.193+404.39+692.587C409.196+687.981+414.87+684.409+421.412+681.873C427.954+679.336+435.03+678.068+442.64+678.068C449.983+678.068+456.725+679.303+462.867+681.773C469.008+684.243+474.282+687.814+478.688+692.487C483.093+697.16+486.531+702.834+489.001+709.509C491.471+716.185+492.706+723.795+492.706+732.339Z" opacity="1" fill="#000000"/>
<path d="M577.272+713.514C575.403+711.111+572.866+709.175+569.662+707.707C566.458+706.238+563.187+705.504+559.849+705.504C556.378+705.504+553.24+706.205+550.437+707.607C547.633+709.009+545.23+710.878+543.227+713.214C541.224+715.55+539.656+718.254+538.521+721.325C537.386+724.395+536.819+727.666+536.819+731.138C536.819+734.609+537.353+737.88+538.421+740.951C539.489+744.021+541.058+746.725+543.127+749.061C545.196+751.398+547.666+753.233+550.537+754.568C553.407+755.904+556.645+756.571+560.249+756.571C563.587+756.571+566.892+755.937+570.162+754.669C573.433+753.4+576.07+751.564+578.073+749.161L596.297+771.391C592.158+775.396+586.818+778.533+580.276+780.803C573.734+783.073+566.791+784.207+559.448+784.207C551.571+784.207+544.228+783.006+537.419+780.603C530.61+778.2+524.703+774.695+519.696+770.089C514.69+765.483+510.751+759.909+507.881+753.367C505.01+746.825+503.575+739.415+503.575+731.138C503.575+722.994+505.01+715.651+507.881+709.109C510.751+702.567+514.69+696.993+519.696+692.387C524.703+687.781+530.61+684.243+537.419+681.773C544.228+679.303+551.505+678.068+559.248+678.068C562.853+678.068+566.424+678.402+569.962+679.069C573.5+679.737+576.905+680.638+580.176+681.773C583.447+682.908+586.451+684.309+589.187+685.978C591.924+687.647+594.294+689.483+596.297+691.485L577.272+713.514Z" opacity="1" fill="#000000"/>
<path d="M710.502+730.737C710.502+738.881+709.033+746.258+706.096+752.866C703.159+759.475+699.153+765.082+694.08+769.688C689.007+774.294+683.132+777.866+676.457+780.402C669.781+782.939+662.639+784.207+655.029+784.207C647.552+784.207+640.443+782.939+633.701+780.402C626.958+777.866+621.084+774.294+616.077+769.688C611.071+765.082+607.099+759.475+604.162+752.866C601.225+746.258+599.756+738.881+599.756+730.737C599.756+722.593+601.225+715.25+604.162+708.708C607.099+702.166+611.071+696.626+616.077+692.086C621.084+687.547+626.958+684.076+633.701+681.673C640.443+679.269+647.552+678.068+655.029+678.068C662.639+678.068+669.781+679.269+676.457+681.673C683.132+684.076+689.007+687.547+694.08+692.086C699.153+696.626+703.159+702.166+706.096+708.708C709.033+715.25+710.502+722.593+710.502+730.737ZM678.86+730.737C678.86+727.533+678.326+724.395+677.258+721.325C676.19+718.254+674.654+715.55+672.652+713.214C670.649+710.878+668.179+708.975+665.242+707.507C662.305+706.038+658.9+705.304+655.029+705.304C651.157+705.304+647.752+706.038+644.815+707.507C641.878+708.975+639.441+710.878+637.506+713.214C635.57+715.55+634.101+718.254+633.1+721.325C632.098+724.395+631.598+727.533+631.598+730.737C631.598+733.941+632.098+737.079+633.1+740.149C634.101+743.22+635.603+745.99+637.606+748.46C639.608+750.93+642.078+752.9+645.015+754.368C647.953+755.837+651.357+756.571+655.229+756.571C659.101+756.571+662.505+755.837+665.442+754.368C668.38+752.9+670.849+750.93+672.852+748.46C674.855+745.99+676.357+743.22+677.358+740.149C678.359+737.079+678.86+733.941+678.86+730.737Z" opacity="1" fill="#000000"/>
<path d="M854.145+781.003L854.145+726.532C854.145+723.728+853.945+721.024+853.544+718.421C853.144+715.817+852.409+713.581+851.341+711.712C850.273+709.843+848.838+708.341+847.036+707.206C845.233+706.071+842.864+705.504+839.926+705.504C837.123+705.504+834.686+706.105+832.617+707.306C830.547+708.508+828.812+710.11+827.41+712.113C826.008+714.115+824.973+716.418+824.306+719.022C823.638+721.625+823.305+724.329+823.305+727.132L823.305+781.003L790.461+781.003L790.461+724.128C790.461+718.388+789.326+713.848+787.057+710.51C784.787+707.173+781.182+705.504+776.243+705.504C771.036+705.504+766.997+707.573+764.127+711.712C761.256+715.851+759.821+720.924+759.821+726.932L759.821+781.003L726.778+781.003L726.778+681.272L758.619+681.272L758.619+695.09L759.02+695.09C760.222+692.954+761.724+690.885+763.526+688.882C765.328+686.879+767.498+685.11+770.034+683.575C772.571+682.04+775.408+680.805+778.546+679.87C781.683+678.936+785.121+678.468+788.859+678.468C796.069+678.468+802.177+679.937+807.183+682.874C812.19+685.811+816.095+690.017+818.899+695.491C822.236+690.284+826.509+686.145+831.716+683.074C836.922+680.004+843.264+678.468+850.741+678.468C857.55+678.468+863.257+679.703+867.863+682.173C872.469+684.643+876.174+687.847+878.978+691.786C881.781+695.724+883.817+700.13+885.086+705.003C886.354+709.876+886.988+714.649+886.988+719.322L886.988+781.003L854.145+781.003Z" opacity="1" fill="#000000"/>
</g>
<g opacity="1">
<path d="M239.128+888.53C238.727+879.718+235.89+872.408+230.616+866.601C225.343+860.793+217.833+857.889+208.087+857.889C203.548+857.889+199.342+858.724+195.47+860.393C191.598+862.061+188.194+864.331+185.257+867.202C182.32+870.072+179.983+873.343+178.248+877.014C176.512+880.686+175.511+884.524+175.244+888.53L239.128+888.53ZM252.946+892.935C252.946+893.87+252.946+894.871+252.946+895.939C252.946+897.007+252.879+898.142+252.746+899.344L175.043+899.344C175.177+904.017+176.111+908.422+177.847+912.561C179.583+916.7+181.986+920.305+185.057+923.375C188.127+926.446+191.732+928.883+195.871+930.685C200.01+932.487+204.482+933.389+209.288+933.389C216.364+933.389+222.472+931.753+227.613+928.482C232.753+925.211+236.658+921.44+239.328+917.167L249.541+925.178C243.934+932.254+237.759+937.327+231.017+940.398C224.275+943.469+217.032+945.004+209.288+945.004C202.346+945.004+195.904+943.769+189.963+941.299C184.022+938.829+178.915+935.391+174.643+930.985C170.371+926.58+166.999+921.373+164.53+915.365C162.06+909.357+160.825+902.815+160.825+895.739C160.825+888.663+162.026+882.121+164.429+876.113C166.833+870.105+170.17+864.899+174.443+860.493C178.715+856.087+183.721+852.649+189.462+850.179C195.203+847.709+201.411+846.474+208.087+846.474C215.43+846.474+221.905+847.709+227.512+850.179C233.12+852.649+237.793+855.987+241.531+860.192C245.269+864.398+248.106+869.304+250.042+874.912C251.978+880.519+252.946+886.527+252.946+892.935Z" opacity="1" fill="#000000"/>
<path d="M374.506+860.292L348.071+860.292L348.071+914.964C348.071+918.436+348.405+921.306+349.072+923.576C349.74+925.845+350.708+927.614+351.976+928.883C353.244+930.151+354.746+931.019+356.482+931.486C358.218+931.953+360.087+932.187+362.089+932.187C363.959+932.187+365.928+931.92+367.997+931.386C370.067+930.852+372.036+930.118+373.905+929.183L374.506+940.999C372.103+941.933+369.599+942.634+366.996+943.101C364.392+943.569+361.555+943.802+358.485+943.802C355.948+943.802+353.278+943.469+350.474+942.801C347.67+942.133+345.067+940.865+342.664+938.996C340.261+937.127+338.291+934.59+336.756+931.386C335.221+928.182+334.453+923.976+334.453+918.769L334.453+860.292L315.028+860.292L315.028+848.877L334.453+848.877L334.453+822.443L348.071+822.443L348.071+848.877L374.506+848.877L374.506+860.292Z" opacity="1" fill="#000000"/>
<path d="M513.889+942.601C513.622+940.064+513.422+937.26+513.288+934.19C513.155+931.119+513.088+928.582+513.088+926.58L512.687+926.58C510.017+932.054+505.678+936.493+499.67+939.897C493.662+943.302+487.321+945.004+480.645+945.004C468.763+945.004+459.851+941.466+453.91+934.39C447.969+927.314+444.998+917.968+444.998+906.353L444.998+848.877L458.616+848.877L458.616+900.746C458.616+905.685+459.017+910.158+459.818+914.163C460.619+918.169+461.987+921.606+463.923+924.477C465.859+927.347+468.463+929.584+471.734+931.186C475.005+932.788+479.11+933.589+484.05+933.589C487.655+933.589+491.159+932.855+494.564+931.386C497.968+929.917+501.005+927.681+503.676+924.677C506.346+921.673+508.482+917.868+510.084+913.262C511.686+908.656+512.487+903.216+512.487+896.941L512.487+848.877L526.105+848.877L526.105+921.974C526.105+924.51+526.172+927.781+526.305+931.786C526.439+935.792+526.639+939.396+526.906+942.601L513.889+942.601Z" opacity="1" fill="#000000"/>
<path d="M689.32+926.78C685.315+932.788+680.108+937.327+673.699+940.398C667.291+943.469+660.682+945.004+653.873+945.004C646.53+945.004+639.888+943.736+633.947+941.199C628.006+938.662+622.932+935.191+618.727+930.785C614.521+926.379+611.25+921.173+608.914+915.165C606.578+909.157+605.409+902.682+605.409+895.739C605.409+888.797+606.578+882.321+608.914+876.314C611.25+870.306+614.521+865.099+618.727+860.693C622.932+856.287+628.006+852.816+633.947+850.279C639.888+847.743+646.53+846.474+653.873+846.474C660.682+846.474+667.291+848.043+673.699+851.18C680.108+854.318+685.315+858.957+689.32+865.099L689.72+865.099L689.72+791.202L703.338+791.202L703.338+942.601L689.72+942.601L689.72+926.78L689.32+926.78ZM619.828+895.739C619.828+900.946+620.629+905.852+622.232+910.458C623.834+915.064+626.137+919.07+629.141+922.474C632.145+925.879+635.849+928.549+640.255+930.485C644.661+932.421+649.668+933.389+655.275+933.389C660.482+933.389+665.288+932.421+669.694+930.485C674.1+928.549+677.905+925.912+681.109+922.574C684.313+919.237+686.817+915.265+688.619+910.659C690.421+906.053+691.322+901.079+691.322+895.739C691.322+890.399+690.421+885.426+688.619+880.819C686.817+876.213+684.313+872.208+681.109+868.804C677.905+865.399+674.1+862.729+669.694+860.793C665.288+858.857+660.482+857.889+655.275+857.889C649.668+857.889+644.661+858.891+640.255+860.893C635.849+862.896+632.145+865.599+629.141+869.004C626.137+872.408+623.834+876.414+622.232+881.02C620.629+885.626+619.828+890.532+619.828+895.739Z" opacity="1" fill="#000000"/>
<path d="M861.346+888.53C860.946+879.718+858.108+872.408+852.835+866.601C847.561+860.793+840.051+857.889+830.305+857.889C825.766+857.889+821.56+858.724+817.689+860.393C813.817+862.061+810.412+864.331+807.475+867.202C804.538+870.072+802.202+873.343+800.466+877.014C798.73+880.686+797.729+884.524+797.462+888.53L861.346+888.53ZM875.164+892.935C875.164+893.87+875.164+894.871+875.164+895.939C875.164+897.007+875.097+898.142+874.964+899.344L797.262+899.344C797.395+904.017+798.33+908.422+800.065+912.561C801.801+916.7+804.204+920.305+807.275+923.375C810.346+926.446+813.95+928.883+818.089+930.685C822.228+932.487+826.701+933.389+831.507+933.389C838.583+933.389+844.691+931.753+849.831+928.482C854.971+925.211+858.876+921.44+861.546+917.167L871.76+925.178C866.152+932.254+859.978+937.327+853.235+940.398C846.493+943.469+839.25+945.004+831.507+945.004C824.564+945.004+818.123+943.769+812.181+941.299C806.24+938.829+801.134+935.391+796.861+930.985C792.589+926.58+789.218+921.373+786.748+915.365C784.278+909.357+783.043+902.815+783.043+895.739C783.043+888.663+784.245+882.121+786.648+876.113C789.051+870.105+792.389+864.899+796.661+860.493C800.933+856.087+805.94+852.649+811.681+850.179C817.422+847.709+823.63+846.474+830.305+846.474C837.648+846.474+844.123+847.709+849.731+850.179C855.338+852.649+860.011+855.987+863.749+860.192C867.487+864.398+870.325+869.304+872.26+874.912C874.196+880.519+875.164+886.527+875.164+892.935Z" opacity="1" fill="#000000"/>
</g>
</g>
</g>
</g>
</svg>
